<?xml version="1.0" standalone="no"?>
<!DOCTYPE svg PUBLIC "-//W3C//DTD SVG 20010904//EN"
 "http://www.w3.org/TR/2001/REC-SVG-20010904/DTD/svg10.dtd">
<svg version="1.0" xmlns="http://www.w3.org/2000/svg"
 width="800.000000pt" height="600.000000pt" viewBox="0 0 800.000000 600.000000"
 preserveAspectRatio="xMidYMid meet">
<metadata>
Created by potrace 1.16, written by Peter Selinger 2001-2019
</metadata>
<g transform="translate(0.000000,600.000000) scale(0.100000,-0.100000)"
fill="#000000" stroke="none">
<path d="M4741 4269 c-56 -110 -101 -202 -100 -204 2 -2 38 -8 80 -14 206 -28
318 -122 307 -255 -16 -192 -300 -439 -701 -611 -64 -27 -115 -51 -113 -53 6
-6 175 67 278 120 212 108 405 259 487 381 78 114 91 230 35 310 -49 70 -181
127 -295 127 -21 0 -40 4 -43 9 -3 5 5 28 18 52 88 164 173 339 163 339 -7 0
-59 -91 -116 -201z"/>
<path d="M2810 2733 l0 -103 51 0 c43 0 55 5 81 30 28 29 30 35 26 86 -3 30
-10 60 -17 67 -6 6 -41 14 -76 17 l-65 5 0 -102z"/>
<path d="M3230 2733 l0 -103 49 0 c37 0 57 6 76 23 49 41 43 161 -9 172 -11 2
-42 6 -68 7 l-48 3 0 -102z"/>
<path d="M4315 2815 c-33 -33 -36 -119 -4 -159 28 -36 101 -38 123 -3 34 52
32 131 -5 168 -28 28 -84 25 -114 -6z"/>
<path d="M4704 2830 c-29 -12 -48 -62 -41 -116 6 -61 29 -84 82 -84 57 0 78
24 83 100 4 53 2 61 -21 84 -27 27 -63 32 -103 16z"/>
<path d="M1690 2730 c0 -82 3 -100 15 -100 12 0 15 16 16 78 l1 77 36 -77 c31
-65 41 -77 62 -78 l25 0 0 100 c0 73 -3 100 -12 100 -14 0 -15 -7 -13 -97 1
-35 -1 -63 -5 -63 -3 0 -22 36 -42 80 -30 67 -40 80 -59 80 -24 0 -24 -2 -24
-100z"/>
<path d="M2370 2730 c0 -82 3 -100 15 -100 11 0 15 12 15 48 l0 47 33 -47 c18
-27 40 -47 50 -48 19 0 18 5 -17 52 -11 15 -18 29 -15 30 2 2 13 8 24 14 23
13 32 68 14 90 -7 9 -31 14 -65 14 l-54 0 0 -100z"/>
<path d="M3066 2818 c-3 -7 -16 -49 -30 -93 -30 -93 -30 -95 -12 -95 8 0 17
14 21 30 6 28 10 30 51 30 41 0 45 -2 51 -30 4 -20 11 -30 24 -30 16 0 15 9
-15 98 -30 88 -35 97 -59 100 -16 2 -29 -2 -31 -10z"/>
<path d="M5386 2745 c-15 -47 -29 -92 -32 -100 -4 -9 0 -15 9 -15 8 0 20 14
26 31 10 28 13 30 53 27 36 -3 43 -7 48 -28 3 -14 13 -26 22 -28 15 -3 14 6
-8 75 -13 43 -27 88 -30 101 -5 16 -14 22 -34 22 -26 0 -29 -5 -54 -85z"/>
<path d="M3721 2500 c-21 -5 -30 -21 -57 -103 -26 -78 -30 -97 -18 -97 8 0 20
14 25 30 10 27 16 30 51 30 35 0 41 -4 51 -30 6 -16 17 -30 24 -30 16 0 12 20
-26 131 -24 70 -28 75 -50 69z"/>
<path d="M4307 2490 c-30 -24 -42 -76 -27 -130 12 -45 33 -60 82 -60 58 0 78
30 78 114 0 47 -4 57 -26 75 -34 26 -74 27 -107 1z"/>
<path d="M2550 2400 l0 -100 48 0 c26 0 57 7 69 15 45 31 54 125 16 167 -12
13 -31 18 -75 18 l-58 0 0 -100z"/>
<path d="M3040 2400 l0 -100 50 0 c72 0 100 29 100 102 0 80 -17 98 -91 98
l-59 0 0 -100z"/>
<path d="M3460 2400 c0 -81 3 -100 14 -100 11 0 16 14 18 46 l3 46 32 -46 c18
-25 39 -46 48 -46 20 0 19 6 -10 44 -30 40 -30 42 -5 49 26 7 42 50 30 82 -9
23 -15 25 -70 25 l-60 0 0 -100z"/>
<path d="M3860 2400 c0 -82 3 -100 15 -100 12 0 15 16 16 83 l0 82 39 -82 c34
-72 42 -83 64 -83 l26 0 0 100 c0 81 -3 100 -15 100 -11 0 -15 -18 -17 -82
l-3 -83 -39 83 c-33 68 -43 82 -63 82 -23 0 -23 -2 -23 -100z"/>
</g>
</svg>
